<svg xmlns="http://www.w3.org/2000/svg" viewBox="0 0 800 130">
  <defs>
    <linearGradient id="bg2" x1="0" y1="0" x2="1" y2="1">
      <stop offset="0%" stop-color="#0d1117"/>
      <stop offset="100%" stop-color="#161b22"/>
    </linearGradient>
    <linearGradient id="accent2" x1="0" y1="0" x2="1" y2="0">
      <stop offset="0%" stop-color="#58a6ff"/>
      <stop offset="100%" stop-color="#1f6feb"/>
    </linearGradient>
    <clipPath id="bar-clip">
      <rect x="24" y="52" width="752" height="10" rx="5"/>
    </clipPath>
  </defs>

  <rect width="800" height="130" rx="12" fill="url(#bg2)" stroke="#30363d" stroke-width="1"/>

  <!-- Title -->
  <text x="24" y="32" font-size="15" fill="#e6edf3" font-family="'Segoe UI',Helvetica,Arial,sans-serif" font-weight="600">Top Languages</text>
  <rect x="24" y="42" width="60" height="2" rx="1" fill="url(#accent2)"/>

  <!-- Combined Progress Bar -->
  <g clip-path="url(#bar-clip)">
    <rect x="24.0" y="52" width="294.01" height="10" fill="#e34c26"/>
    <rect x="318.0056840993689" y="52" width="168.27" height="10" fill="#f1e05a"/>
    <rect x="486.2753651836175" y="52" width="131.18" height="10" fill="#4F5D95"/>
    <rect x="617.4512076734463" y="52" width="43.59" height="10" fill="#3178C6"/>
    <rect x="661.0386316694824" y="52" width="41.93" height="10" fill="#563d7c"/>
    <rect x="702.9651671011005" y="52" width="73.03" height="10" fill="#484f58"/>
  </g>

  <!-- Legend -->
  <g transform="translate(24, 84)">
    <circle cx="5" cy="5" r="5" fill="#e34c26"/>
    <text x="16" y="9" font-size="12" font-family="'Segoe UI',Helvetica,Arial,sans-serif"><tspan fill="#e6edf3">HTML</tspan><tspan fill="#7d8590" dx="14">39.1%</tspan></text>
  </g>
  <g transform="translate(149, 84)">
    <circle cx="5" cy="5" r="5" fill="#f1e05a"/>
    <text x="16" y="9" font-size="12" font-family="'Segoe UI',Helvetica,Arial,sans-serif"><tspan fill="#e6edf3">JavaScript</tspan><tspan fill="#7d8590" dx="14">22.4%</tspan></text>
  </g>
  <g transform="translate(274, 84)">
    <circle cx="5" cy="5" r="5" fill="#4F5D95"/>
    <text x="16" y="9" font-size="12" font-family="'Segoe UI',Helvetica,Arial,sans-serif"><tspan fill="#e6edf3">PHP</tspan><tspan fill="#7d8590" dx="14">17.4%</tspan></text>
  </g>
  <g transform="translate(399, 84)">
    <circle cx="5" cy="5" r="5" fill="#3178C6"/>
    <text x="16" y="9" font-size="12" font-family="'Segoe UI',Helvetica,Arial,sans-serif"><tspan fill="#e6edf3">TypeScript</tspan><tspan fill="#7d8590" dx="14">5.8%</tspan></text>
  </g>
  <g transform="translate(524, 84)">
    <circle cx="5" cy="5" r="5" fill="#563d7c"/>
    <text x="16" y="9" font-size="12" font-family="'Segoe UI',Helvetica,Arial,sans-serif"><tspan fill="#e6edf3">CSS</tspan><tspan fill="#7d8590" dx="14">5.6%</tspan></text>
  </g>
  <g transform="translate(649, 84)">
    <circle cx="5" cy="5" r="5" fill="#484f58"/>
    <text x="16" y="9" font-size="12" font-family="'Segoe UI',Helvetica,Arial,sans-serif"><tspan fill="#e6edf3">Other</tspan><tspan fill="#7d8590" dx="14">9.7%</tspan></text>
  </g>

  <!-- Decorative dots -->
  <circle cx="760" cy="28" r="3" fill="#e34c26" opacity="0.3"/>
  <circle cx="772" cy="28" r="3" fill="#f1e05a" opacity="0.3"/>
  <circle cx="784" cy="28" r="3" fill="#4F5D95" opacity="0.3"/>
</svg>